<?xml version="1.0" standalone="no"?>
<!DOCTYPE svg PUBLIC "-//W3C//DTD SVG 20010904//EN"
 "http://www.w3.org/TR/2001/REC-SVG-20010904/DTD/svg10.dtd">
<svg version="1.0" xmlns="http://www.w3.org/2000/svg"
 width="300.000000pt" height="300.000000pt" viewBox="0 0 300.000000 300.000000"
 preserveAspectRatio="xMidYMid meet">
<metadata>
Created by potrace 1.14, written by Peter Selinger 2001-2017
</metadata>
<g transform="translate(0.000000,300.000000) scale(0.100000,-0.100000)"
fill="#000000" stroke="none">
<path d="M1310 2250 c-18 -18 -25 -44 -21 -78 1 -6 -11 -18 -26 -24 -35 -16
-43 -26 -43 -58 0 -18 -8 -29 -32 -39 -17 -8 -59 -42 -93 -75 -68 -69 -123
-169 -150 -276 -83 -326 20 -770 222 -963 24 -23 47 -42 51 -42 4 -1 21 -8 37
-17 37 -19 81 -27 167 -29 41 -1 65 -6 61 -12 -3 -5 -6 -19 -7 -29 -1 -16 -17
-25 -84 -44 -46 -13 -107 -40 -137 -58 -84 -54 -131 -153 -105 -222 10 -25 6
-31 -44 -81 -57 -57 -106 -140 -106 -180 0 -22 3 -23 86 -23 l86 0 40 45 c22
25 43 45 46 45 4 0 20 -20 35 -45 l29 -45 296 0 297 0 39 61 c26 40 44 58 53
54 30 -11 71 -51 87 -82 l16 -33 94 0 93 0 -3 33 c-5 43 -57 148 -91 182 -16
15 -50 41 -76 57 -32 20 -45 34 -39 42 5 6 8 31 7 56 -6 129 -119 208 -320
225 -38 3 -72 9 -76 13 -4 4 -10 30 -14 57 -5 45 -4 52 16 65 43 28 120 114
150 166 55 98 70 183 64 388 -7 254 -17 362 -46 480 -21 87 -84 214 -127 256
-31 30 -91 74 -107 76 -5 1 -29 9 -51 17 -32 12 -45 13 -54 4 -7 -7 -10 -7 -7
-2 13 24 -21 46 -84 54 -4 1 -10 17 -13 36 -12 60 -76 85 -116 45z"/>
</g>
</svg>
